<svg width="24" height="24" viewBox="0 0 24 24" xmlns="http://www.w3.org/2000/svg">
<g clip-path="url(#clip0_2210_1646)">
<path fill-rule="evenodd" clip-rule="evenodd" d="M11 5.5C11 8.53757 8.53757 11 5.5 11C2.46243 11 0 8.53757 0 5.5C0 2.46243 2.46243 0 5.5 0C8.53757 0 11 2.46243 11 5.5ZM9 5.5C9 7.433 7.433 9 5.5 9C3.567 9 2 7.433 2 5.5C2 3.567 3.567 2 5.5 2C7.433 2 9 3.567 9 5.5Z" />
<path fill-rule="evenodd" clip-rule="evenodd" d="M13 3C13 1.34315 14.3431 0 16 0H21C22.6569 0 24 1.34315 24 3V8C24 9.65685 22.6569 11 21 11H16C14.3431 11 13 9.65685 13 8V3ZM16 2H21C21.5523 2 22 2.44772 22 3V8C22 8.55228 21.5523 9 21 9H16C15.4477 9 15 8.55229 15 8V3C15 2.44772 15.4477 2 16 2Z" />
<path fill-rule="evenodd" clip-rule="evenodd" d="M6.76428 13.8056C6.20972 12.7315 4.79028 12.7315 4.23572 13.8056L0.188401 21.6448C-0.355513 22.6983 0.343248 24 1.45268 24H9.54732C10.6568 24 11.3555 22.6983 10.8116 21.6448L6.76428 13.8056ZM5.5 15.7164L2.25584 22H8.74416L5.5 15.7164Z" />
<path fill-rule="evenodd" clip-rule="evenodd" d="M17.0887 13.3517C17.962 12.8828 19.038 12.8828 19.9113 13.3517L22.5887 14.7892C23.462 15.2581 24 16.1247 24 17.0625V19.9375C24 20.8753 23.462 21.7419 22.5887 22.2108L19.9113 23.6483C19.038 24.1172 17.962 24.1172 17.0887 23.6483L14.4113 22.2108C13.538 21.7419 13 20.8753 13 19.9375V17.0625C13 16.1247 13.538 15.2581 14.4113 14.7892L17.0887 13.3517ZM18.9652 15.1138L21.6426 16.5513C21.9129 16.6964 22 16.9121 22 17.0625V19.9375C22 20.0879 21.9129 20.3036 21.6426 20.4487L18.9652 21.8862C18.6827 22.0379 18.3173 22.0379 18.0348 21.8862L15.3574 20.4487C15.0871 20.3036 15 20.0879 15 19.9375V17.0625C15 16.9121 15.0871 16.6964 15.3574 16.5513L18.0348 15.1138C18.3173 14.9621 18.6827 14.9621 18.9652 15.1138Z" />
</g>
</svg>
