<svg width="42" height="42" viewBox="0 0 42 42" xmlns="http://www.w3.org/2000/svg">
<path fill-rule="evenodd" clip-rule="evenodd" d="M21.4472 2.34166C21.1657 2.20089 20.8343 2.20089 20.5528 2.34166L17.2146 4.01077C16.7206 4.25776 16.1199 4.05753 15.8729 3.56355C15.6259 3.06958 15.8262 2.4689 16.3201 2.22191L19.6584 0.552803C20.5029 0.130512 21.4971 0.130511 22.3416 0.552802L25.6799 2.22191C26.1738 2.4689 26.3741 3.06958 26.1271 3.56355C25.8801 4.05753 25.2794 4.25776 24.7854 4.01077L21.4472 2.34166ZM27.6764 4.33824C27.9234 3.84426 28.5241 3.64403 29.0181 3.89102L32.3563 5.56013C32.6951 5.72953 32.9091 6.07579 32.9091 6.45456V10.697C32.9091 11.2493 32.4614 11.697 31.9091 11.697C31.3568 11.697 30.9091 11.2493 30.9091 10.697V8.0726L28.7199 9.16717C28.226 9.41416 27.6253 9.21394 27.3783 8.71996C27.1313 8.22598 27.3315 7.62531 27.8255 7.37832L29.673 6.45456L28.1237 5.67988C27.6297 5.43289 27.4295 4.83222 27.6764 4.33824ZM14.3236 4.33824C14.5705 4.83222 14.3703 5.43289 13.8763 5.67988L12.327 6.45456L14.1745 7.37832C14.6685 7.62531 14.8687 8.22598 14.6217 8.71996C14.3747 9.21394 13.774 9.41416 13.2801 9.16717L11.0909 8.0726V10.697C11.0909 11.2493 10.6432 11.697 10.0909 11.697C9.53862 11.697 9.09091 11.2493 9.09091 10.697V6.45456C9.09091 6.07579 9.30491 5.72953 9.6437 5.56013L12.9819 3.89102C13.4759 3.64403 14.0766 3.84426 14.3236 4.33824ZM16.4692 9.64371C16.7162 9.14973 17.3169 8.94951 17.8109 9.1965L21 10.7911L24.1891 9.1965C24.6831 8.94951 25.2838 9.14973 25.5308 9.64371C25.7778 10.1377 25.5776 10.7384 25.0836 10.9854L22 12.5271V16.1515C22 16.7038 21.5523 17.1515 21 17.1515C20.4477 17.1515 20 16.7038 20 16.1515V12.5271L16.9164 10.9854C16.4224 10.7384 16.2222 10.1377 16.4692 9.64371ZM10.0909 13.9394C10.6432 13.9394 11.0909 14.3871 11.0909 14.9394L11.0909 18.5638L14.1745 20.1056C14.6685 20.3526 14.8687 20.9533 14.6217 21.4472C14.3747 21.9412 13.774 22.1414 13.2801 21.8944L10.1347 20.3218L7.5751 21.8575C7.10152 22.1417 6.48726 21.9881 6.20311 21.5145C5.91897 21.0409 6.07253 20.4267 6.54611 20.1425L9.09091 18.6156L9.09091 14.9394C9.09091 14.3871 9.53862 13.9394 10.0909 13.9394ZM31.9091 13.9394C32.4614 13.9394 32.9091 14.3871 32.9091 14.9394V18.6156L35.4539 20.1425C35.9275 20.4267 36.081 21.0409 35.7969 21.5145C35.5127 21.9881 34.8985 22.1417 34.4249 21.8575L31.8653 20.3218L28.7199 21.8944C28.226 22.1414 27.6253 21.9412 27.3783 21.4472C27.1313 20.9533 27.3315 20.3526 27.8255 20.1056L30.9091 18.5638V14.9394C30.9091 14.3871 31.3568 13.9394 31.9091 13.9394ZM21 19.394C21.5523 19.394 22 19.8417 22 20.394V23.0183L24.1891 21.9238C24.6831 21.6768 25.2838 21.877 25.5308 22.371C25.7778 22.865 25.5776 23.4656 25.0836 23.7126L23.2361 24.6364L25.0836 25.5601C25.5776 25.8071 25.7778 26.4078 25.5308 26.9018C25.2838 27.3958 24.6831 27.596 24.1891 27.349L22 26.2544V28.2727C22 28.825 21.5523 29.2727 21 29.2727C20.4477 29.2727 20 28.825 20 28.2727V26.2544L17.8109 27.349C17.3169 27.596 16.7162 27.3958 16.4692 26.9018C16.2222 26.4078 16.4224 25.8071 16.9164 25.5601L18.7639 24.6364L16.9164 23.7126C16.4224 23.4656 16.2222 22.865 16.4692 22.371C16.7162 21.877 17.3169 21.6768 17.8109 21.9238L20 23.0183V20.394C20 19.8417 20.4477 19.394 21 19.394ZM4.8878 22.3037C5.17194 22.7773 5.01838 23.3915 4.5448 23.6757L2.94365 24.6364L4.5448 25.5971C5.01838 25.8812 5.17194 26.4955 4.8878 26.9691C4.60365 27.4426 3.98939 27.5962 3.51581 27.3121L2 26.4026L2 27.8953C2 28.4476 1.55228 28.8953 1 28.8953C0.447715 28.8953 0 28.4476 0 27.8953L0 24.6364C0 24.2851 0.184299 23.9596 0.485504 23.7789L3.51581 21.9607C3.98939 21.6766 4.60365 21.8301 4.8878 22.3037ZM37.1122 22.3037C37.3964 21.8301 38.0106 21.6766 38.4842 21.9607L41.5145 23.7789C41.8157 23.9596 42 24.2851 42 24.6364V27.8953C42 28.4476 41.5523 28.8953 41 28.8953C40.4477 28.8953 40 28.4476 40 27.8953V26.4026L38.4842 27.3121C38.0106 27.5962 37.3964 27.4426 37.1122 26.9691C36.8281 26.4955 36.9816 25.8812 37.4552 25.5971L39.0564 24.6364L37.4552 23.6757C36.9816 23.3915 36.8281 22.7773 37.1122 22.3037ZM14.6217 27.8255C14.8687 28.3195 14.6685 28.9202 14.1745 29.1672L11.0909 30.709V33.7273C11.0909 34.2796 10.6432 34.7273 10.0909 34.7273C9.53862 34.7273 9.09091 34.2796 9.09091 33.7273V30.6571L6.54611 29.1302C6.07253 28.8461 5.91897 28.2318 6.20311 27.7582C6.48726 27.2847 7.10152 27.1311 7.5751 27.4153L10.1347 28.951L13.2801 27.3783C13.774 27.1313 14.3747 27.3316 14.6217 27.8255ZM27.3783 27.8255C27.6253 27.3316 28.226 27.1313 28.7199 27.3783L31.8653 28.951L34.4249 27.4153C34.8985 27.1311 35.5127 27.2847 35.7969 27.7582C36.081 28.2318 35.9275 28.8461 35.4539 29.1302L32.9091 30.6571V33.7273C32.9091 34.2796 32.4614 34.7273 31.9091 34.7273C31.3568 34.7273 30.9091 34.2796 30.9091 33.7273L30.9091 30.709L27.8255 29.1672C27.3315 28.9202 27.1313 28.3195 27.3783 27.8255ZM1 30.1542C1.55228 30.1542 2 30.6019 2 31.1542L2 34.4131C2 34.7644 2.1843 35.0899 2.4855 35.2706L5.19214 36.8946C5.66572 37.1787 5.81928 37.793 5.53514 38.2666C5.25099 38.7401 4.63673 38.8937 4.16315 38.6096L1.45651 36.9856C0.552897 36.4434 0 35.4669 0 34.4131L0 31.1542C0 30.6019 0.447715 30.1542 1 30.1542ZM41 30.1542C41.5523 30.1542 42 30.6019 42 31.1542V34.4131C42 35.4669 41.4471 36.4434 40.5435 36.9856L37.8369 38.6096C37.3633 38.8937 36.749 38.7401 36.4649 38.2666C36.1807 37.793 36.3343 37.1787 36.8079 36.8946L39.5145 35.2706C39.8157 35.0899 40 34.7644 40 34.4131V31.1542C40 30.6019 40.4477 30.1542 41 30.1542ZM21 30.9091C21.5523 30.9091 22 31.3568 22 31.9091L22 34.9274L25.0836 36.4692C25.5776 36.7162 25.7778 37.3169 25.5308 37.8109C25.2838 38.3048 24.6831 38.5051 24.1891 38.2581L21 36.6635L17.8109 38.2581C17.3169 38.5051 16.7162 38.3048 16.4692 37.8109C16.2222 37.3169 16.4224 36.7162 16.9164 36.4692L20 34.9274L20 31.9091C20 31.3568 20.4477 30.9091 21 30.9091ZM10.0909 36.3637C10.6432 36.3637 11.0909 36.8114 11.0909 37.3637L11.0909 39.382L13.2801 38.2874C13.774 38.0404 14.3747 38.2406 14.6217 38.7346C14.8687 39.2286 14.6685 39.8293 14.1745 40.0763L10.5381 41.8944C10.2323 42.0473 9.86959 42.0334 9.57641 41.8575L6.86978 40.2335C6.3962 39.9494 6.24263 39.3351 6.52678 38.8615C6.81093 38.388 7.42519 38.2344 7.89877 38.5185L9.09091 39.2338L9.09091 37.3637C9.09091 36.8114 9.53862 36.3637 10.0909 36.3637ZM31.9091 36.3637C32.4614 36.3637 32.9091 36.8114 32.9091 37.3637V39.2338L34.1012 38.5185C34.5748 38.2344 35.1891 38.388 35.4732 38.8615C35.7574 39.3351 35.6038 39.9494 35.1302 40.2335L32.4236 41.8575C32.1304 42.0334 31.7677 42.0473 31.4619 41.8944L27.8255 40.0763C27.3315 39.8293 27.1313 39.2286 27.3783 38.7346C27.6253 38.2406 28.226 38.0404 28.7199 38.2874L30.9091 39.382V37.3637C30.9091 36.8114 31.3568 36.3637 31.9091 36.3637Z"/>
</svg>
