<svg width="24" height="24" viewBox="0 0 24 24" xmlns="http://www.w3.org/2000/svg">
<path fill-rule="evenodd" clip-rule="evenodd" d="M1.99995 4C1.99995 2.34315 3.3431 1 4.99995 1H21C22.6568 1 24 2.34315 24 4V15C24 16.6569 22.6568 18 21 18C20.4477 18 20 17.5523 20 17C20 16.4477 20.4477 16 21 16C21.5522 16 22 15.5523 22 15V4C22 3.44772 21.5522 3 21 3H4.99995C4.44767 3 3.99995 3.44772 3.99995 4V8C3.99995 8.55228 3.55224 9 2.99995 9C2.44767 9 1.99995 8.55228 1.99995 8V4ZM7.99995 14C9.10452 14 9.99995 13.1046 9.99995 12C9.99995 10.8954 9.10452 10 7.99995 10C6.89538 10 5.99995 10.8954 5.99995 12C5.99995 13.1046 6.89538 14 7.99995 14ZM11.2002 14.4C11.7024 13.7315 12 12.9005 12 12C12 9.79086 10.2091 8 7.99995 8C5.79081 8 3.99995 9.79086 3.99995 12C3.99995 13.1044 4.44751 14.1042 5.17115 14.8281C3.14141 15.5296 1.09375 17.1151 0.316333 19.7417C0.0491311 20.6445 0.326066 21.4958 0.869855 22.087C1.39866 22.6618 2.17871 23 2.99995 23H12.1612C13.8181 23 15.1612 21.6568 15.1612 19.9999V19.3291C15.1612 19.1243 15.2241 18.9244 15.3412 18.7566L18.0736 14.8417C18.7827 13.8258 18.6621 12.4478 17.7873 11.5705C16.6857 10.4656 14.8604 10.5953 13.926 11.8448L12.3152 13.9989C12.1262 14.2516 11.8299 14.4 11.5149 14.4H11.2002ZM15.5277 13.0425C15.7318 12.7696 16.1304 12.7413 16.371 12.9826C16.5621 13.1742 16.5884 13.4752 16.4336 13.697L13.7012 17.6119C13.3497 18.1156 13.1612 18.715 13.1612 19.3291V19.9999C13.1612 20.5523 12.7135 21 12.1612 21H2.99995C2.71663 21 2.47757 20.8805 2.34178 20.7329C2.22097 20.6016 2.18782 20.4657 2.2341 20.3093C3.017 17.6642 5.68478 16.4 7.5806 16.4H11.5149C12.461 16.4 13.3507 15.9538 13.9169 15.1966L15.5277 13.0425Z"/>
</svg>
