<svg xmlns="http://www.w3.org/2000/svg" fill="none" viewBox="0 0 128 128">
    <path d="M65.1628 16.3764C64.4308 16.0104 63.5692 16.0104 62.8372 16.3764L54.3248 20.6326C53.0898 21.2501 51.5882 20.7496 50.9707 19.5146C50.3532 18.2797 50.8538 16.778 52.0887 16.1605L60.6012 11.9043C62.7408 10.8345 65.2592 10.8345 67.3988 11.9043L75.9113 16.1605C77.1462 16.778 77.6468 18.2797 77.0293 19.5146C76.4118 20.7496 74.9102 21.2501 73.6752 20.6326L65.1628 16.3764ZM46.9304 21.5348C47.5478 22.7697 47.0473 24.2714 45.8123 24.8889L41.772 26.909L46.5726 29.3093C47.8075 29.9268 48.3081 31.4285 47.6906 32.6634C47.0731 33.8984 45.5715 34.399 44.3365 33.7815L38.6818 30.9541V37.7272C38.6818 39.1079 37.5625 40.2272 36.1818 40.2272C34.8011 40.2272 33.6818 39.1079 33.6818 37.7272V26.909C33.6818 25.9621 34.2168 25.0965 35.0638 24.673L43.5762 20.4167C44.8112 19.7993 46.3129 20.2998 46.9304 21.5348ZM81.0696 21.5348C81.6871 20.2998 83.1888 19.7993 84.4238 20.4167L92.9362 24.673C93.7832 25.0965 94.3182 25.9621 94.3182 26.909V37.7272C94.3182 39.1079 93.1989 40.2272 91.8182 40.2272C90.4375 40.2272 89.3182 39.1079 89.3182 37.7272V30.9541L83.6635 33.7815C82.4285 34.399 80.9269 33.8984 80.3094 32.6634C79.6919 31.4285 80.1925 29.9268 81.4274 29.3093L86.228 26.909L82.1877 24.8889C80.9527 24.2714 80.4522 22.7697 81.0696 21.5348ZM75.5088 35.0637C76.1263 36.2987 75.6257 37.8004 74.3908 38.4178L66.5 42.3632V51.6363C66.5 53.017 65.3807 54.1363 64 54.1363C62.6193 54.1363 61.5 53.017 61.5 51.6363V42.3632L53.6092 38.4178C52.3743 37.8004 51.8737 36.2987 52.4912 35.0637C53.1087 33.8288 54.6104 33.3282 55.8453 33.9457L64 38.0231L72.1547 33.9457C73.3896 33.3282 74.8913 33.8288 75.5088 35.0637ZM36.1818 46.0454C37.5625 46.0454 38.6818 47.1647 38.6818 48.5454V57.8185L46.5726 61.7639C47.8075 62.3814 48.3081 63.883 47.6906 65.118C47.0731 66.3529 45.5715 66.8535 44.3365 66.236L36.2913 62.2134L29.7408 66.1437C28.5568 66.8541 27.0212 66.4701 26.3108 65.2862C25.6004 64.1022 25.9844 62.5666 27.1683 61.8562L33.6818 57.9481V48.5454C33.6818 47.1647 34.8011 46.0454 36.1818 46.0454ZM91.8182 46.0454C93.1989 46.0454 94.3182 47.1647 94.3182 48.5454L94.3182 57.9481L100.832 61.8562C102.016 62.5666 102.4 64.1022 101.689 65.2862C100.979 66.4701 99.4432 66.8541 98.2592 66.1437L91.7087 62.2134L83.6635 66.236C82.4285 66.8535 80.9269 66.3529 80.3094 65.118C79.6919 63.883 80.1925 62.3814 81.4274 61.7639L89.3182 57.8185L89.3182 48.5454C89.3182 47.1647 90.4375 46.0454 91.8182 46.0454ZM64 59.9545C65.3807 59.9545 66.5 61.0738 66.5 62.4545V69.2276L72.1547 66.4002C73.3896 65.7828 74.8913 66.2833 75.5088 67.5183C76.1263 68.7532 75.6257 70.2549 74.3908 70.8724L69.5902 73.2727L74.3908 75.673C75.6257 76.2904 76.1263 77.7921 75.5088 79.0271C74.8913 80.262 73.3896 80.7626 72.1547 80.1451L66.5 77.3178L66.5 82.5454C66.5 83.9261 65.3807 85.0454 64 85.0454C62.6193 85.0454 61.5 83.9261 61.5 82.5454L61.5 77.3178L55.8453 80.1451C54.6104 80.7626 53.1087 80.262 52.4912 79.0271C51.8737 77.7921 52.3743 76.2904 53.6092 75.673L58.4098 73.2727L53.6092 70.8724C52.3743 70.2549 51.8737 68.7532 52.4912 67.5183C53.1087 66.2833 54.6104 65.7828 55.8453 66.4002L61.5 69.2276V62.4545C61.5 61.0738 62.6193 59.9545 64 59.9545ZM22.871 67.3501C23.5814 68.534 23.1975 70.0697 22.0135 70.78L17.8591 73.2727L22.0135 75.7653C23.1975 76.4757 23.5814 78.0113 22.871 79.1953C22.1606 80.3792 20.625 80.7631 19.441 80.0528L15.5 77.6882V81.5829C15.5 82.9636 14.3807 84.0829 13 84.0829C11.6193 84.0829 10.5 82.9636 10.5 81.5829V73.2727C10.5 72.3945 10.9607 71.5808 11.7138 71.1289L19.441 66.4926C20.625 65.7822 22.1606 66.1661 22.871 67.3501ZM105.129 67.3501C105.839 66.1661 107.375 65.7822 108.559 66.4926L116.286 71.1289C117.039 71.5808 117.5 72.3945 117.5 73.2727V81.5829C117.5 82.9636 116.381 84.0829 115 84.0829C113.619 84.0829 112.5 82.9636 112.5 81.5829V77.6882L108.559 80.0528C107.375 80.7631 105.839 80.3792 105.129 79.1953C104.419 78.0113 104.803 76.4757 105.986 75.7653L110.141 73.2727L105.986 70.78C104.803 70.0697 104.419 68.534 105.129 67.3501ZM47.6906 81.4274C48.3081 82.6623 47.8075 84.164 46.5726 84.7815L38.6818 88.7269V96.4545C38.6818 97.8352 37.5625 98.9545 36.1818 98.9545C34.8011 98.9545 33.6818 97.8352 33.6818 96.4545V88.5972L27.1683 84.6891C25.9844 83.9788 25.6004 82.4431 26.3108 81.2592C27.0212 80.0752 28.5568 79.6913 29.7408 80.4017L36.2913 84.332L44.3365 80.3093C45.5715 79.6919 47.0731 80.1924 47.6906 81.4274ZM80.3094 81.4274C80.9269 80.1924 82.4285 79.6919 83.6635 80.3093L91.7087 84.332L98.2592 80.4017C99.4432 79.6913 100.979 80.0752 101.689 81.2592C102.4 82.4431 102.016 83.9788 100.832 84.6891L94.3182 88.5972V96.4545C94.3182 97.8352 93.1989 98.9545 91.8182 98.9545C90.4375 98.9545 89.3182 97.8352 89.3182 96.4545V88.7269L81.4274 84.7815C80.1925 84.164 79.6919 82.6623 80.3094 81.4274ZM115 87.3931C116.381 87.3931 117.5 88.5124 117.5 89.8931V98.2033C117.5 100.873 116.099 103.347 113.81 104.72L106.908 108.861C105.724 109.572 104.189 109.188 103.478 108.004C102.768 106.82 103.152 105.284 104.336 104.574L111.238 100.433C112.021 99.9629 112.5 99.1166 112.5 98.2033V89.8931C112.5 88.5124 113.619 87.3931 115 87.3931ZM13 87.3931C14.3807 87.3931 15.5 88.5124 15.5 89.8931L15.5 98.2033C15.5 99.1166 15.9792 99.9629 16.7623 100.433L23.6642 104.574C24.8482 105.284 25.2321 106.82 24.5217 108.004C23.8113 109.188 22.2757 109.572 21.0917 108.861L14.1898 104.72C11.9007 103.347 10.5 100.873 10.5 98.2033L10.5 89.8931C10.5 88.5124 11.6193 87.3931 13 87.3931ZM64 89.3181C65.3807 89.3181 66.5 90.4374 66.5 91.8181V99.5458L74.3908 103.491C75.6257 104.109 76.1263 105.61 75.5088 106.845C74.8913 108.08 73.3896 108.581 72.1547 107.963L64 103.886L55.8453 107.963C54.6104 108.581 53.1087 108.08 52.4912 106.845C51.8737 105.61 52.3743 104.109 53.6092 103.491L61.5 99.5458V91.8181C61.5 90.4374 62.6193 89.3181 64 89.3181ZM36.1818 103.227C37.5625 103.227 38.6818 104.347 38.6818 105.727V110.955L44.3365 108.128C45.5715 107.51 47.0731 108.011 47.6906 109.246C48.3081 110.48 47.8075 111.982 46.5726 112.6L37.2999 117.236C36.5353 117.618 35.6285 117.583 34.8956 117.144L27.9937 113.003C26.8097 112.292 26.4258 110.757 27.1362 109.573C27.8465 108.389 29.3822 108.005 30.5661 108.715L33.6818 110.584V105.727C33.6818 104.347 34.8011 103.227 36.1818 103.227ZM91.8182 103.227C93.1989 103.227 94.3182 104.347 94.3182 105.727V110.584L97.4339 108.715C98.6178 108.005 100.153 108.389 100.864 109.573C101.574 110.757 101.19 112.292 100.006 113.003L93.1044 117.144C92.3715 117.583 91.4647 117.618 90.7001 117.236L81.4274 112.6C80.1925 111.982 79.6919 110.48 80.3094 109.246C80.9269 108.011 82.4285 107.51 83.6635 108.128L89.3182 110.955V105.727C89.3182 104.347 90.4375 103.227 91.8182 103.227Z"/>
    <style>
        path { fill: #000; }
        @media (prefers-color-scheme: dark) {
            path { fill: #FFF; }
        }
    </style>
</svg>
