<svg width="24" height="24" viewBox="0 0 24 24" xmlns="http://www.w3.org/2000/svg">
<g clip-path="url(#clip0_2210_1748)">
<path fill-rule="evenodd" clip-rule="evenodd" d="M10 7C10 8.65685 8.65685 10 7 10C5.34315 10 4 8.65685 4 7C4 5.34315 5.34315 4 7 4C8.65685 4 10 5.34315 10 7ZM8 7C8 7.55228 7.55228 8 7 8C6.44772 8 6 7.55228 6 7C6 6.44772 6.44772 6 7 6C7.55228 6 8 6.44772 8 7Z"/>
<path fill-rule="evenodd" clip-rule="evenodd" d="M16 0H4C1.79086 0 0 1.79086 0 4V16C0 17.8666 1.27853 19.4346 3.00763 19.8759C3.00259 19.9166 3 19.958 3 20C3 22.2091 4.79086 24 7 24H20C22.2091 24 24 22.2091 24 20V7C24 4.79086 22.2091 3 20 3C19.958 3 19.9166 3.00259 19.8759 3.00763C19.4346 1.27853 17.8666 0 16 0ZM20 5V16C20 18.2091 18.2091 20 16 20H5.01422L5 20.0001C5.00006 21.1046 5.89547 22 7 22H20C21.1046 22 22 21.1046 22 20V7C22 5.89543 21.1046 5 20 5ZM16 18H6.84711L9.89617 13.3297L12.1414 15.0911C12.3766 15.2756 12.682 15.3453 12.9739 15.2809C13.2659 15.2165 13.5137 15.0249 13.6495 14.7586L16.7486 8.68009L18 9.93145V16C18 17.1046 17.1046 18 16 18ZM8.81782 11.3229L4.45861 18H4C2.89543 18 2 17.1046 2 16V4C2 2.89543 2.89543 2 4 2H16C17.1046 2 18 2.89543 18 4V7.10303L17.1899 6.29289C16.9636 6.06658 16.6426 5.96226 16.3265 6.01229C16.0103 6.06232 15.7372 6.26064 15.5919 6.54578L12.4197 12.7675L10.2724 11.0828C10.0519 10.9098 9.76887 10.8373 9.49231 10.8829C9.21576 10.9286 8.97105 11.0882 8.81782 11.3229Z"/>
</g>
</svg>
