<svg width="24" height="24" viewBox="0 0 24 24" xmlns="http://www.w3.org/2000/svg">
<g clip-path="url(#clip0_2507_1561)">
<path fill-rule="evenodd" clip-rule="evenodd" d="M12.4472 2.34166C12.1657 2.20089 11.8343 2.20089 11.5528 2.34166L8.23607 4.00002L12 5.88198L15.7639 4.00002L12.4472 2.34166ZM17 5.61805L13 7.61805V12.382L17 10.382V5.61805ZM17.9562 12.1399L14.2361 14L17.9562 15.8601L21.0563 14L17.9562 12.1399ZM22 15.7662L19 17.5662V21.2338L21.5145 19.7251C21.8157 19.5444 22 19.2189 22 18.8676V15.7662ZM17 21.382V17.618L13 15.618V19.382L17 21.382ZM11 19.382V15.618L7 17.618V21.382L11 19.382ZM5 21.2338V17.5662L2 15.7662V18.8676C2 19.2189 2.1843 19.5444 2.4855 19.7251L5 21.2338ZM2.94365 14L6.04378 15.8601L9.76393 14L6.04378 12.1399L2.94365 14ZM7 10.382L11 12.382V7.61805L7 5.61805V10.382ZM5 10.4338V4.00002C5 3.62124 5.214 3.27498 5.55279 3.10559L10.6584 0.552802C11.5029 0.130511 12.4971 0.130511 13.3416 0.552802L18.4472 3.10559C18.786 3.27498 19 3.62124 19 4.00002V10.4338L23.5145 13.1425C23.8157 13.3232 24 13.6488 24 14V18.8676C24 19.9214 23.4471 20.8979 22.5435 21.4401L18.5145 23.8575C18.2213 24.0334 17.8586 24.0473 17.5528 23.8944L12 21.118L6.44721 23.8944C6.14141 24.0473 5.77868 24.0334 5.4855 23.8575L1.45651 21.4401C0.552897 20.8979 0 19.9214 0 18.8676V14C0 13.6488 0.184299 13.3232 0.485504 13.1425L5 10.4338Z"/>
</g>
</svg>
